# xmcd
#
# Track frame offsets:
#	150
#	22547
#	47546
#	69788
#	90779
#	113090
#	138789
#	161461
#	182268
#	203427
#	225798
#	248058
#
# Disc length: 3617 seconds
#
# Revision: 1
# Processed by: cddbd v1.5.2PL0 Copyright (c) Steve Scherf et al.
# Submitted via: EZCDAudioConverter 8.0.2.1
#
DISCID=6c0e1f0c
DTITLE=Various Artist - st. Trương Lê Sơn. Ngày Và Đêm
DYEAR=2008
DGENRE=R&B
TTITLE0=Đàm Vĩnh Hưng - Ngày không bình yên
TTITLE1=Hoàng Lê Vi - Vắng anh mùa đông
TTITLE2=Tuấn Hưng - Thiên đường không lối
TTITLE3=Lệ Quyên - Quay lại từ đầu
TTITLE4=Lê Hiếu - Hãy yêu thật lòng
TTITLE5=Hồng Ngọc - Một lần lầm lỡ
TTITLE6=Đàm Vĩnh Hưng - Chén đắng
TTITLE7=Hoàng Lê Vi - Nửa trái tim tội nghiệp
TTITLE8=Khang Việt - Nếu không còn yêu
TTITLE9=Hoàng Lê Vi - Vì cớ làm sao
TTITLE10=Đàm Vĩnh Hưng - Giải thoát
TTITLE11=Tuấn Hưng - Đêm định mệnh
EXTD=
EXTT0=
EXTT1=
EXTT2=
EXTT3=
EXTT4=
EXTT5=
EXTT6=
EXTT7=
EXTT8=
EXTT9=
EXTT10=
EXTT11=
PLAYORDER=
